<?xml version="1.0" encoding="UTF-8"?>
<svg width="100px" height="100px" viewBox="0 0 100 100" version="1.1" xmlns="http://www.w3.org/2000/svg" xmlns:xlink="http://www.w3.org/1999/xlink">
    <!-- Generator: Sketch 48.1 (47250) - http://www.bohemiancoding.com/sketch -->
    <title>1</title>
    <desc>Created with Sketch.</desc>
    <defs></defs>
    <g id="Main" stroke="none" stroke-width="1" fill="none" fill-rule="evenodd" transform="translate(-130.000000, -2930.000000)">
        <path d="M229.21875,2988.82812 C229.765625,2985.9375 230,2983.04688 230,2980 C230,2976.95312 229.6875,2974.0625 229.21875,2971.17188 L206.484375,2971.17188 L206.484375,2965.3125 L227.8125,2965.3125 C221.484375,2944.84375 202.5,2930 180,2930 C157.5,2930 138.515625,2944.84375 132.1875,2965.3125 L153.515625,2965.3125 L153.515625,2971.17188 L130.78125,2971.17188 C130.3125,2974.0625 130,2976.95312 130,2980 C130,2983.04688 130.3125,2985.9375 130.78125,2988.82812 L153.515625,2988.82812 L153.515625,2994.6875 L132.1875,2994.6875 C138.515625,3015.15625 157.5,3030 180,3030 C202.5,3030 221.484375,3015.15625 227.8125,2994.6875 L206.484375,2994.6875 L206.484375,2988.82812 L229.21875,2988.82812 Z M141.171875,2959.375 C148.59375,2945.54688 163.203125,2936.09375 180,2936.09375 C196.796875,2936.09375 211.40625,2945.54688 218.828125,2959.45312 L188.828125,2959.45312 L188.828125,2948.90625 C192.34375,2949.92188 195.625,2951.48438 198.515625,2953.51562 L207.734375,2953.51562 C201.40625,2946.875 192.65625,2942.5 182.96875,2941.79688 L182.96875,2965.3125 L200.625,2965.3125 L200.625,2971.17188 L159.375,2971.17188 L159.375,2965.3125 L177.03125,2965.3125 L177.03125,2941.79688 C167.34375,2942.5 158.59375,2946.875 152.265625,2953.51562 L161.484375,2953.51562 C164.375,2951.48438 167.65625,2949.92188 171.171875,2948.90625 L171.171875,2959.375 L141.171875,2959.375 Z M218.828125,3000.625 C211.484375,3014.53125 196.875,3023.98438 180,3023.98438 C163.203125,3023.98438 148.59375,3014.53125 141.171875,3000.625 L171.171875,3000.625 L171.171875,3011.09375 C167.65625,3010.07812 164.375,3008.51562 161.484375,3006.48438 L152.265625,3006.48438 C158.59375,3013.125 167.34375,3017.5 177.109375,3018.28125 L177.109375,2994.6875 L159.375,2994.6875 L159.375,2988.82812 L200.546875,2988.82812 L200.546875,2994.6875 L182.96875,2994.6875 L182.96875,3018.20312 C192.734375,3017.5 201.40625,3013.125 207.8125,3006.40625 L198.515625,3006.40625 C195.625,3008.4375 192.34375,3010 188.828125,3011.01562 L188.828125,3000.625 L218.828125,3000.625 Z M136.171875,2982.96875 C136.09375,2982.03125 136.09375,2981.01562 136.09375,2980 C136.09375,2978.98438 136.171875,2978.04688 136.171875,2977.03125 L223.828125,2977.03125 C223.90625,2977.96875 223.90625,2978.98438 223.90625,2980 C223.90625,2981.01562 223.828125,2981.95312 223.828125,2982.96875 L136.171875,2982.96875 Z" id="1" fill="#001E36" fill-rule="nonzero"></path>
    </g>
</svg>