<?xml version="1.0" encoding="UTF-8"?>
<svg width="100px" height="100px" viewBox="0 0 100 100" version="1.1" xmlns="http://www.w3.org/2000/svg" xmlns:xlink="http://www.w3.org/1999/xlink">
    <!-- Generator: Sketch 48.1 (47250) - http://www.bohemiancoding.com/sketch -->
    <title>2</title>
    <desc>Created with Sketch.</desc>
    <defs></defs>
    <g id="Main" stroke="none" stroke-width="1" fill="none" fill-rule="evenodd" transform="translate(-570.000000, -2930.000000)">
        <path d="M620,2930 C592.421875,2930 570,2952.42188 570,2980 C570,3007.57812 592.421875,3030 620,3030 C647.578125,3030 670,3007.57812 670,2980 C670,2952.42188 647.578125,2930 620,2930 Z M617.03125,2936.32812 L617.03125,2965.3125 L591.015625,2965.3125 C594.140625,2959.14062 599.140625,2954.14062 605.3125,2951.09375 L605.3125,2959.45312 L611.171875,2959.45312 L611.171875,2943.125 C597.34375,2946.40625 586.40625,2957.34375 583.125,2971.17188 L656.953125,2971.17188 C653.59375,2957.34375 642.65625,2946.40625 628.828125,2943.125 L628.828125,2959.45312 L634.6875,2959.45312 L634.6875,2951.01562 C640.78125,2954.14062 645.859375,2959.14062 648.984375,2965.23438 L622.96875,2965.23438 L622.96875,2936.32812 C644.84375,2937.8125 662.265625,2955.23438 663.671875,2977.03125 L576.328125,2977.03125 C577.734375,2955.23438 595.234375,2937.73438 617.03125,2936.32812 Z M622.96875,3023.67188 L622.96875,2994.6875 L648.984375,2994.6875 C645.859375,3000.85938 640.859375,3005.85938 634.6875,3008.90625 L634.6875,3000.625 L628.828125,3000.625 L628.828125,3016.95312 C642.65625,3013.59375 653.59375,3002.65625 656.875,2988.82812 L583.125,2988.82812 C586.40625,3002.65625 597.34375,3013.59375 611.171875,3016.875 L611.171875,3000.625 L605.3125,3000.625 L605.3125,3008.98438 C599.21875,3005.85938 594.140625,3000.85938 591.015625,2994.76562 L617.03125,2994.76562 L617.03125,3023.75 C595.15625,3022.26562 577.734375,3004.84375 576.328125,2983.04688 L663.671875,2983.04688 C662.265625,3004.76562 644.765625,3022.26562 622.96875,3023.67188 Z" id="2" fill="#001E36" fill-rule="nonzero"></path>
    </g>
</svg>