<?xml version="1.0" encoding="UTF-8"?>
<svg width="100px" height="100px" viewBox="0 0 100 100" version="1.1" xmlns="http://www.w3.org/2000/svg" xmlns:xlink="http://www.w3.org/1999/xlink">
    <!-- Generator: Sketch 48.1 (47250) - http://www.bohemiancoding.com/sketch -->
    <title>3</title>
    <desc>Created with Sketch.</desc>
    <defs></defs>
    <g id="Main" stroke="none" stroke-width="1" fill="none" fill-rule="evenodd" transform="translate(-1010.000000, -2930.000000)">
        <path d="M1109.92188,2982.9274 C1110,2981.99063 1110,2980.9758 1110,2979.96097 C1110,2978.94614 1110,2978.00937 1109.92188,2976.99454 L1062.96875,2976.99454 L1062.96875,2971.13973 L1104.14062,2971.13973 L1109.21875,2971.13973 C1105.54688,2950.6089 1089.375,2934.44965 1068.82812,2930.78064 L1068.82812,2959.35207 L1092.34375,2959.35207 C1089.29688,2954.59016 1085.3125,2950.6089 1080.54688,2947.5644 L1080.54688,2953.4192 L1074.6875,2953.4192 L1074.6875,2938.58704 C1087.10938,2943.03669 1096.95312,2952.87276 1101.40625,2965.28493 L1062.96875,2965.28493 L1062.96875,2930.07806 C1061.95312,2930 1061.01562,2930 1060,2930 C1058.98438,2930 1058.04688,2930 1057.03125,2930.07806 L1057.03125,2965.28493 L1018.59375,2965.28493 C1023.04688,2952.87276 1032.89062,2943.03669 1045.3125,2938.58704 L1045.3125,2953.49727 L1039.45312,2953.49727 L1039.45312,2947.64247 C1034.6875,2950.68696 1030.70312,2954.66823 1027.65625,2959.43013 L1051.17188,2959.43013 L1051.17188,2930.78064 C1030.625,2934.44965 1014.45312,2950.6089 1010.78125,2971.13973 L1015.85938,2971.13973 L1057.03125,2971.13973 L1057.03125,2976.99454 L1010.07812,2976.99454 C1010,2978.00937 1010,2978.94614 1010,2979.96097 C1010,2980.9758 1010,2981.91257 1010.07812,2982.9274 L1057.03125,2982.9274 L1057.03125,2988.7822 L1015.85938,2988.7822 L1010.78125,2988.7822 C1014.45312,3009.31304 1030.625,3025.47229 1051.17188,3029.1413 L1051.17188,3000.56987 L1027.65625,3000.56987 C1030.70312,3005.33177 1034.6875,3009.31304 1039.45312,3012.35753 L1039.45312,3006.50273 L1045.3125,3006.50273 L1045.3125,3021.33489 C1034.92188,3017.66589 1026.32812,3010.17174 1021.25,3000.56987 L1021.17188,3000.56987 L1021.17188,3000.4918 C1020.15625,2998.61827 1019.375,2996.74473 1018.67188,2994.71507 L1057.10938,2994.71507 L1057.10938,3029.92194 C1058.04688,3030 1059.0625,3030 1060.07812,3030 C1061.09375,3030 1062.03125,3030 1063.04688,3029.92194 L1063.04688,2994.637 L1101.40625,2994.637 C1096.95312,3007.04918 1087.10938,3016.88525 1074.6875,3021.33489 L1074.6875,3006.42467 L1080.54688,3006.42467 L1080.54688,3012.27947 C1085.3125,3009.23497 1089.29688,3005.25371 1092.34375,3000.4918 L1068.82812,3000.4918 L1068.82812,3029.1413 C1089.375,3025.47229 1105.54688,3009.31304 1109.21875,2988.7822 L1062.96875,2988.7822 L1062.96875,2982.9274 L1109.92188,2982.9274 Z" id="3" fill="#001E36" fill-rule="nonzero"></path>
    </g>
</svg>