<svg xmlns="http://www.w3.org/2000/svg" width="45" height="25" viewBox="0 0 45 25">
    <g fill="#FFF" fill-rule="evenodd">
        <path d="M44.49 17.929c0 2.714-1.125 4.321-2.672 5.464C40.271 24.536 38.092 25 35.596 25h-9.914V.357h8.261c2.215 0 4.36.179 5.977 1.036s3.094 2.464 3.094 5.178c0 2.715-1.723 4.786-3.551 5.429 3.023.821 5.027 2.893 5.027 5.929zm-7.066-10.5c0-1.179-.492-1.858-1.195-2.286-.668-.429-1.301-.5-2.532-.5h-8.016v5.678h7.876c1.265 0 2.004-.071 2.672-.535.703-.5 1.195-1.143 1.195-2.357zm1.3 10.035c0-1.107-.386-1.857-1.23-2.464s-1.793-.679-3.023-.679h-3.13v6.286h3.13c1.23 0 2.18-.071 3.023-.678.844-.572 1.23-1.393 1.23-2.465z"/>
        <path d="M17.578.34h14.766v4.3H17.578z"/>
        <path d="M17.596.357l-5.66 16.964L6.24.357H.193l9 24.643h5.414l9-24.643z"/>
    </g>
</svg>
