<svg xmlns="http://www.w3.org/2000/svg" width="36" height="20" viewBox="0 0 36 20">
    <g fill="#000" fill-rule="evenodd">
        <path d="M35.592 14.343c0 2.171-.9 3.457-2.137 4.371C32.217 19.63 30.473 20 28.477 20h-7.932V.286h6.61c1.772 0 3.487.143 4.78.828 1.295.686 2.476 1.972 2.476 4.143 0 2.172-1.378 3.829-2.84 4.343 2.418.657 4.021 2.314 4.021 4.743zm-5.653-8.4c0-.943-.394-1.486-.956-1.829-.535-.343-1.04-.4-2.025-.4h-6.413v4.543h6.3c1.013 0 1.603-.057 2.138-.428.562-.4.956-.915.956-1.886zm1.04 8.028c0-.885-.309-1.485-.984-1.971s-1.434-.543-2.418-.543h-2.504v5.029h2.504c.984 0 1.743-.057 2.418-.543.675-.457.985-1.114.985-1.972z"/>
        <path d="M14.063.272h11.812v3.44H14.062z"/>
        <path d="M14.077.286L9.548 13.857 4.992.286H.155L7.355 20h4.33l7.2-19.714z"/>
    </g>
</svg>
