<svg xmlns="http://www.w3.org/2000/svg" width="112" height="21" viewBox="0 0 112 21">
    <g fill="none" fill-rule="evenodd">
        <path fill="#FFF" d="M25.028 1.592h5.122l4.784 13.078h.078l4.732-13.078h5.148V20h-3.25V5.206h-.052L36 20h-2.288L28.2 5.206h-.052V20h-3.12V1.592zM48.844 7.52h3.12V20h-3.12V7.52zm-.442-4.238c0-.503.186-.94.559-1.313.373-.373.845-.559 1.417-.559.572 0 1.053.178 1.443.533.39.355.585.802.585 1.339 0 .537-.195.984-.585 1.339-.39.355-.871.533-1.443.533-.572 0-1.044-.186-1.417-.559-.373-.373-.559-.81-.559-1.313zM55.76 7.52h2.964v2.002h.052c.277-.624.758-1.174 1.443-1.651.685-.477 1.495-.715 2.431-.715.815 0 1.512.143 2.093.429.58.286 1.057.663 1.43 1.131.373.468.646 1.005.819 1.612.173.607.26 1.23.26 1.872V20h-3.12v-6.916c0-.364-.026-.745-.078-1.144a3.088 3.088 0 0 0-.338-1.079 2.242 2.242 0 0 0-.715-.793c-.303-.208-.706-.312-1.209-.312-.503 0-.936.1-1.3.299a2.76 2.76 0 0 0-.897.767 3.396 3.396 0 0 0-.533 1.079 4.305 4.305 0 0 0-.182 1.235V20h-3.12V7.52zm15.184 0h3.12V20h-3.12V7.52zm-.442-4.238c0-.503.186-.94.559-1.313.373-.373.845-.559 1.417-.559.572 0 1.053.178 1.443.533.39.355.585.802.585 1.339 0 .537-.195.984-.585 1.339-.39.355-.871.533-1.443.533-.572 0-1.044-.186-1.417-.559-.373-.373-.559-.81-.559-1.313zm22.256 3.874c.815 0 1.512.143 2.093.429.58.286 1.057.663 1.43 1.131.373.468.646 1.005.819 1.612.173.607.26 1.23.26 1.872V20h-3.12v-6.916c0-.364-.026-.745-.078-1.144a3.088 3.088 0 0 0-.338-1.079 2.242 2.242 0 0 0-.715-.793c-.303-.208-.706-.312-1.209-.312-.485 0-.901.104-1.248.312a2.725 2.725 0 0 0-.858.806 3.45 3.45 0 0 0-.494 1.105c-.104.407-.156.81-.156 1.209V20h-3.12v-7.54c0-.78-.186-1.426-.559-1.937-.373-.511-.958-.767-1.755-.767-.468 0-.875.1-1.222.299-.347.2-.628.455-.845.767a3.52 3.52 0 0 0-.494 1.079 4.613 4.613 0 0 0-.169 1.235V20h-3.12V7.52h2.964v2.002h.052c.139-.312.325-.607.559-.884.234-.277.511-.529.832-.754.32-.225.689-.403 1.105-.533.416-.13.875-.195 1.378-.195.97 0 1.777.217 2.418.65a4.314 4.314 0 0 1 1.482 1.716c.416-.763.97-1.348 1.664-1.755.693-.407 1.508-.611 2.444-.611zm8.294-6.812h3.12V20h-3.12V.344zm6.344 17.836c0-.555.204-1.031.611-1.43a2.025 2.025 0 0 1 1.469-.598c.555 0 1.04.19 1.456.572.416.381.624.85.624 1.404 0 .555-.204 1.031-.611 1.43a2.025 2.025 0 0 1-1.469.598c-.277 0-.542-.052-.793-.156a2.261 2.261 0 0 1-.663-.416 1.933 1.933 0 0 1-.455-.624 1.83 1.83 0 0 1-.169-.78z"/>
        <path fill="#6A6AFF" d="M0 2h3v18H0z"/>
    </g>
</svg>
