<svg xmlns="http://www.w3.org/2000/svg" width="470" height="348" viewBox="0 0 470 348">
    <g fill="#FCFDFD" fill-rule="evenodd">
        <path d="M174.948 94.759c0 29.625.182 59.253-.134 88.874-.074 7.027-1.817 14.038-2.788 21.057-.105.756-.101 1.538-.29 2.27-1.208 4.682-2.42 9.362-3.7 14.024a492.258 492.258 0 0 1-3.54 12.266c-.672 2.212-1.365 4.437-2.297 6.547-2.38 5.39-4.812 10.762-7.416 16.047-.881 1.787-2.394 3.26-3.528 4.936-2.89 4.28-5.742 8.587-8.589 12.897-2.218 3.356-4.145 6.938-6.674 10.043-2.867 3.52-6.189 6.692-9.44 9.888-4.563 4.483-9.074 9.043-13.929 13.203-3.73 3.196-7.932 5.862-11.974 8.696-3.908 2.738-7.777 5.553-11.852 8.03-3.722 2.262-7.641 4.228-11.572 6.125-4.856 2.343-9.797 4.521-14.74 6.682-2.038.892-4.134 1.723-6.281 2.29-7.671 2.03-15.13 4.615-23.11 5.84-5.385.825-11.063.436-16.07 2.105-4.855 1.618-9.512.983-14.25 1.397-1.96.17-2.78-.557-2.774-2.586.048-17.49.04-34.98.016-52.472-.003-2.044.758-2.973 2.948-2.903 3.092.101 6.19-.077 9.287-.065 5.814.025 11.232-1.6 16.617-3.578 2.121-.78 4.567-.691 6.696-1.459 6.71-2.42 13.442-4.835 19.962-7.703 3.255-1.433 6.147-3.742 9.063-5.845 4.05-2.923 8.08-5.895 11.91-9.09 2.987-2.492 5.776-5.248 8.438-8.083 3.558-3.79 7.642-7.358 10.18-11.763 4.108-7.131 10.154-13.18 12.008-21.67.872-3.988 3.353-7.633 5.1-11.435.18-.394.36-.797.475-1.211 2.791-10.173 4.077-20.503 3.715-31.065-.11-3.129-1.192-4.093-4.325-4.087-35.717.087-71.435.057-107.153.054-4.912 0-4.918-.006-4.918-4.791-.002-54.55-.002-109.1 0-163.65C.019.005.027.002 4.743.002h165.87c4.34 0 4.348.007 4.348 4.242.003 30.172.002 60.343.002 90.516h-.015zM469.884 97.748c0 31.045.185 62.093-.16 93.134-.067 5.94-2.186 11.864-3.412 17.785-.732 3.546-1.477 7.092-2.384 10.596-.846 3.275-1.898 6.499-2.89 9.736-.806 2.63-1.411 5.355-2.541 7.847-2.5 5.513-5.271 10.908-7.939 16.348-1.078 2.196-2.08 4.435-3.29 6.56-1.677 2.948-3.399 5.885-5.314 8.687-2.97 4.337-5.875 8.755-9.246 12.78-5.42 6.47-10.855 12.994-16.93 18.837-5.042 4.846-10.969 8.805-16.589 13.044-4.876 3.679-9.754 7.379-14.867 10.716-2.634 1.72-5.818 2.595-8.688 3.985-3.043 1.473-6 3.119-9.01 4.662-1.517.778-3.017 1.616-4.606 2.217-5.277 1.998-10.51 4.172-15.915 5.76-5.263 1.546-10.68 2.684-16.1 3.581-6.2 1.026-12.717.815-18.643 2.603-4.643 1.403-9.082.983-13.616 1.352-1.96.16-2.75-.533-2.744-2.58.06-17.491.052-34.982.013-52.471-.005-2.06.696-3.024 2.9-2.906 2.094.112 4.219.141 6.299-.08 6.035-.64 12.147-1.012 18.06-2.269 5.827-1.238 11.565-3.13 17.124-5.286 5.332-2.07 10.811-4.237 15.47-7.435 9.244-6.345 18.666-12.598 25.759-21.544 2.087-2.632 4.988-4.653 6.946-7.357 3.597-4.968 6.933-10.141 10.07-15.406 2.726-4.575 5.103-9.36 7.472-14.132.753-1.517 1.024-3.277 1.443-4.945.905-3.607 1.77-7.223 2.642-10.837 1.162-4.835 2.63-9.625 3.372-14.523.566-3.734.3-7.608.16-11.412-.021-.59-1.277-1.412-2.096-1.626-1.144-.297-2.413-.148-3.628-.148-35.832-.005-71.664-.002-107.496-.006-4.474 0-4.48-.014-4.48-4.519V4.525c0-4.519.005-4.524 4.395-4.524h166.22c4.34 0 4.352.007 4.352 4.284.004 31.154.003 62.308.003 93.463h-.116z"/>
    </g>
</svg>
